HIERARCHY
ROOT Hips
{
	OFFSET 0.000000 0.000000 0.000000
	CHANNELS 6 Xposition Yposition Zposition Zrotation Yrotation Xrotation 
	JOINT LowerBack
	{
		OFFSET 0.000000 0.000000 0.000000
		CHANNELS 3 Zrotation Yrotation Xrotation
		JOINT Spine
		{
			OFFSET 0.028270 2.035590 -0.193380
			CHANNELS 3 Zrotation Yrotation Xrotation
			JOINT Spine1
			{
				OFFSET 0.056720 2.048850 -0.042750
				CHANNELS 3 Zrotation Yrotation Xrotation
				JOINT Neck
				{
					OFFSET 0.000000 0.000000 0.000000
					CHANNELS 3 Zrotation Yrotation Xrotation
					JOINT Neck1
					{
						OFFSET -0.054170 1.746240 0.172020
						CHANNELS 3 Zrotation Yrotation Xrotation
						JOINT Head
						{
							OFFSET 0.104070 1.761360 -0.123970
							CHANNELS 3 Zrotation Yrotation Xrotation
							End Site
							{
								OFFSET 0.000000 0.000000 0.000000
							}
						}
					}
				}
				JOINT LeftShoulder
				{
					OFFSET 0.000000 0.000000 0.000000
					CHANNELS 3 Zrotation Yrotation Xrotation
					JOINT LeftArm
					{
						OFFSET 3.362410 1.200890 -0.311210
						CHANNELS 3 Zrotation Yrotation Xrotation
						JOINT LeftForeArm
						{
							OFFSET 4.983000 -0.000000 -0.000000
							CHANNELS 3 Zrotation Yrotation Xrotation
							JOINT LeftHand
							{
								OFFSET 3.483560 -0.000000 -0.000000
								CHANNELS 3 Zrotation Yrotation Xrotation
								JOINT LeftFingerBase
								{
									OFFSET 0.000000 0.000000 0.000000
									CHANNELS 3 Zrotation Yrotation Xrotation
									JOINT LeftHandIndex1
									{
										OFFSET 0.715260 -0.000000 -0.000000
										CHANNELS 3 Zrotation Yrotation Xrotation
										End Site
										{
											OFFSET 0.000000 0.000000 0.000000
										}
									}
								}
								JOINT LThumb
								{
									OFFSET 0.000000 0.000000 0.000000
									CHANNELS 3 Zrotation Yrotation Xrotation
									End Site
									{
										OFFSET 0.000000 0.000000 0.000000
									}
								}
							}
						}
					}
				}
				JOINT RightShoulder
				{
					OFFSET 0.000000 0.000000 0.000000
					CHANNELS 3 Zrotation Yrotation Xrotation
					JOINT RightArm
					{
						OFFSET -3.136600 1.374050 -0.404650
						CHANNELS 3 Zrotation Yrotation Xrotation
						JOINT RightForeArm
						{
							OFFSET -5.241900 -0.000000 -0.000000
							CHANNELS 3 Zrotation Yrotation Xrotation
							JOINT RightHand
							{
								OFFSET -3.444170 -0.000000 -0.000000
								CHANNELS 3 Zrotation Yrotation Xrotation
								JOINT RightFingerBase
								{
									OFFSET 0.000000 0.000000 0.000000
									CHANNELS 3 Zrotation Yrotation Xrotation
									JOINT RightHandIndex1
									{
										OFFSET -0.622530 -0.000000 -0.000000
										CHANNELS 3 Zrotation Yrotation Xrotation
										End Site
										{
											OFFSET 0.000000 0.000000 0.000000
										}
									}
								}
								JOINT RThumb
								{
									OFFSET 0.000000 0.000000 0.000000
									CHANNELS 3 Zrotation Yrotation Xrotation
									End Site
									{
										OFFSET 0.000000 0.000000 0.000000
									}
								}
							}
						}
					}
				}
			}
		}
	}
}
}
MOTION
Frames: 10
Frame Time: 0.008333
2.931995 16.942792 2.779967 -45.265638 -47.950508 31.665311 4.027858 -6.098813 7.589023 -0.448649 -6.234250 -1.016963 -8.653485 -6.035060 -0.388196 14.371423 -12.849055 -3.360194 -2.713575 -0.246732 0.878235 0.000000 0.000000 0.000000 5.465499 -1.257278 -0.760799 -45.132447 1.217845 34.433098 -0.887203 -63.214179 -0.001640 -2.941380 -9.509939 0.255385 0.067792 0.197365 0.000000 0.000000 0.000000 0.000000 0.000000 0.000000 0.000000 16.388120 -13.489676 -0.364215 66.065805 -26.291436 -20.942056 5.223780 4.887556 0.025446 10.027623 14.376804 1.255878 0.100761 -0.000489 -0.000000 0.000000 0.000000 0.000000 0.000000 0.000000 0.000000 
2.894505 16.981453 2.798286 -44.922492 -47.901477 31.424087 3.459085 -6.151890 6.744190 -0.552870 -6.301725 -1.144529 -8.644754 -6.096181 -0.354847 14.461487 -13.256987 -3.310831 -2.796080 -0.254015 0.896038 0.000000 0.000000 0.000000 4.844664 -0.958836 -0.924071 -45.460239 2.514319 34.335975 -0.913604 -62.413130 -0.002178 -2.806817 -9.553959 0.244480 0.064707 0.186319 0.000000 0.000000 0.000000 0.000000 0.000000 0.000000 0.000000 17.049625 -14.034798 -0.599391 65.945036 -27.448253 -22.407796 5.238443 4.357319 0.026657 9.685797 14.320383 1.208091 0.102078 -0.006367 -0.000000 0.000000 0.000000 0.000000 0.000000 0.000000 0.000000 
2.859020 17.015404 2.820906 -44.932433 -48.016814 31.614844 3.071871 -6.129297 5.781064 -0.621818 -6.297239 -1.310749 -8.651983 -6.090658 -0.342195 14.513857 -13.577196 -3.320556 -2.875566 -0.260678 0.901735 0.000000 0.000000 0.000000 4.200235 -0.562704 -1.063838 -45.822642 3.798086 34.062453 -0.947226 -61.587780 -0.002418 -2.661906 -9.596188 0.232495 0.060244 0.175459 0.000000 0.000000 0.000000 0.000000 0.000000 0.000000 0.000000 17.651160 -14.409500 -0.790681 65.786973 -28.575789 -23.832364 5.256899 3.789991 0.028283 9.221259 14.265919 1.145110 0.104934 -0.012987 -0.000000 0.000000 0.000000 0.000000 0.000000 0.000000 0.000000 
2.827707 17.042582 2.848055 -45.375295 -48.204619 32.060986 2.954925 -6.051127 4.928775 -0.641793 -6.239842 -1.474123 -8.676673 -6.035234 -0.363398 14.526454 -13.797416 -3.385620 -2.950673 -0.266472 0.894689 0.000000 0.000000 0.000000 3.537758 -0.090726 -1.170949 -46.244164 5.051443 33.586906 -0.989417 -60.750036 -0.002391 -2.513545 -9.637617 0.220122 0.054808 0.165094 0.000000 0.000000 0.000000 0.000000 0.000000 0.000000 0.000000 18.170062 -14.609566 -0.931113 65.613087 -29.639103 -25.147668 5.274472 3.192208 0.030070 8.627666 14.212556 1.066230 0.109153 -0.019417 -0.000000 0.000000 0.000000 0.000000 0.000000 0.000000 0.000000 
2.799454 17.062081 2.875270 -45.971818 -48.361016 32.330184 2.966973 -5.975727 4.406532 -0.647727 -6.180403 -1.594404 -8.706307 -5.977944 -0.426481 14.521008 -13.928920 -3.498320 -3.015906 -0.270733 0.873422 0.000000 0.000000 0.000000 2.945152 0.401168 -1.243088 -46.750518 6.282597 32.912074 -1.039559 -59.910170 -0.002252 -2.369231 -9.678099 0.207954 0.049413 0.155681 0.000000 0.000000 0.000000 0.000000 0.000000 0.000000 0.000000 18.614585 -14.683511 -1.024743 65.472278 -30.621186 -26.282538 5.277325 2.579227 0.031659 7.911240 14.158200 0.972346 0.113909 -0.024873 -0.000000 0.000000 0.000000 0.000000 0.000000 0.000000 0.000000 
2.770576 17.073922 2.895466 -46.403059 -48.445411 32.078827 2.886836 -5.949471 4.317555 -0.685466 -6.154283 -1.641829 -8.724881 -5.952385 -0.526702 14.531733 -13.999988 -3.645835 -3.063205 -0.272758 0.838221 0.000000 0.000000 0.000000 2.560231 0.856411 -1.290492 -47.370632 7.517257 32.064196 -1.093882 -59.078098 -0.002179 -2.236894 -9.715322 0.196777 0.045146 0.147733 0.000000 0.000000 0.000000 0.000000 0.000000 0.000000 0.000000 19.004795 -14.690434 -1.078083 65.428109 -31.511493 -27.171231 5.254184 1.971061 0.032812 7.092584 14.100066 0.866254 0.118380 -0.029049 -0.000000 0.000000 0.000000 0.000000 0.000000 0.000000 0.000000 
2.741747 17.078263 2.909087 -46.805869 -48.547817 31.507342 2.735750 -5.933120 4.567878 -0.741286 -6.124855 -1.613424 -8.733979 -5.922342 -0.646910 14.562895 -14.017330 -3.814737 -3.092400 -0.272875 0.793960 0.000000 0.000000 0.000000 2.376545 1.286676 -1.324525 -48.107263 8.737638 31.057696 -1.149872 -58.265724 -0.002136 -2.125793 -9.749761 0.187494 0.041844 0.141176 0.000000 0.000000 0.000000 0.000000 0.000000 0.000000 0.000000 19.336156 -14.615762 -1.090520 65.486361 -32.265815 -27.778430 5.213883 1.377681 0.033619 6.201933 14.034938 0.751558 0.122707 -0.032058 -0.000000 0.000000 0.000000 0.000000 0.000000 0.000000 0.000000 
2.715687 17.076521 2.920106 -47.307492 -48.723177 30.991544 2.609950 -5.890947 4.914070 -0.791212 -6.067100 -1.563043 -8.743842 -5.864443 -0.770677 14.606962 -13.977833 -3.998114 -3.109597 -0.271854 0.744827 0.000000 0.000000 0.000000 2.304897 1.719098 -1.345687 -48.930082 9.919186 29.905705 -1.208367 -57.487008 -0.002003 -2.044898 -9.782456 0.180713 0.038828 0.135567 0.000000 0.000000 0.000000 0.000000 0.000000 0.000000 0.000000 19.609531 -14.450746 -1.067272 65.601185 -32.841327 -28.107869 5.167120 0.802962 0.034211 5.279956 13.962707 0.633760 0.127079 -0.034091 -0.000000 0.000000 0.000000 0.000000 0.000000 0.000000 0.000000 
2.693566 17.070807 2.930452 -47.883820 -48.972556 30.632485 2.517289 -5.818055 5.246359 -0.832744 -5.979775 -1.516551 -8.756571 -5.778030 -0.891627 14.661475 -13.889320 -4.183747 -3.120698 -0.270350 0.694809 0.000000 0.000000 0.000000 2.289475 2.148679 -1.352919 -49.801816 11.046263 28.643549 -1.269908 -56.746227 -0.001739 -1.999180 -9.811628 0.176936 0.035822 0.130683 0.000000 0.000000 0.000000 0.000000 0.000000 0.000000 0.000000 19.848126 -14.204101 -1.016831 65.832746 -33.362648 -28.214621 5.111651 0.635965 0.034097 4.373429 13.703728 0.512157 0.130956 -0.034704 -0.000000 0.000000 0.000000 0.000000 0.000000 0.000000 0.000000 
2.675366 17.063153 2.940807 -48.477578 -49.267900 30.416663 2.440170 -5.722347 5.529327 -0.869268 -5.871347 -1.480598 -8.770839 -5.671304 -1.003583 14.726953 -13.769412 -4.360263 -3.128772 -0.268726 0.646880 0.000000 0.000000 0.000000 2.302902 2.572519 -1.347861 -50.689459 12.092642 27.327162 -1.333728 -56.034459 -0.001354 -1.983523 -9.838337 0.175764 0.032744 0.126463 0.000000 0.000000 0.000000 0.000000 0.000000 0.000000 0.000000 20.069403 -13.902684 -0.950756 66.208442 -33.894294 -28.108773 5.046123 1.089501 0.033023 3.525565 13.171517 0.393452 0.133905 -0.033666 -0.000000 0.000000 0.000000 0.000000 0.000000 0.000000 0.000000 
